# xmcd CD database file
#
# Track frame offsets:
#	150
#	20700
#	44902
#	60525
#	81755
#	104205
#	126977
#	144537
#	158970
#	169925
#	183775
#	202237
#	222375
#
# Disc length: 3191 seconds
#
# Revision: 0
# Processed by: cddbd v1.5.2PL0 Copyright (c) Steve Scherf et al.
# Submitted via: CDex 1.51
#
DISCID=cf0c750d
DTITLE=Red Hot Pods - featuring Jim Galloway
DYEAR=1990
DGENRE=Jazz
TTITLE0=Shine On Your Shoes
TTITLE1=Four or Five Times
TTITLE2=Deliah Gone
TTITLE3=Joué Là, Jim
TTITLE4=Trouble In Mind
TTITLE5=I Don't Know Where I'm going
TTITLE6=Hello Lola
TTITLE7=Lucky Breaks
TTITLE8=New Jugband Waltz
TTITLE9=The Eel
TTITLE10=Mabel's Dream
TTITLE11=Tell Me Your Dreams
TTITLE12=Copenhagen
EXTD=YEAR: 1990
EXTT0=
EXTT1=
EXTT2=
EXTT3=
EXTT4=
EXTT5=
EXTT6=
EXTT7=
EXTT8=
EXTT9=
EXTT10=
EXTT11=
EXTT12=
PLAYORDER=
